<svg width="19" height="13" viewBox="0 0 19 13" fill="none" xmlns="http://www.w3.org/2000/svg">
<path d="M8.60001 2.09988C8.90001 2.59988 9.10001 3.19988 9.10001 3.79988C9.10001 4.39988 8.90001 4.99988 8.60001 5.49988C8.40001 5.79988 8.1 5.99988 7.7 6.09988C8.2 6.29988 8.7 6.59988 9 7.09988C9.3 7.59988 9.49999 8.19989 9.39999 8.69989C9.39999 9.29989 9.19999 9.89988 8.89999 10.4999C8.49999 11.2999 7.7 11.7999 6.8 11.9999C6.3 12.0999 5.7 12.1999 5.2 12.1999H0.100006V0.899886H5.60001C6.70001 0.799886 7.80001 1.29988 8.60001 2.09988ZM2.39999 2.89989V5.39989H5.2C5.6 5.39989 5.99999 5.29988 6.39999 5.09988C6.69999 4.89988 6.89999 4.49988 6.89999 4.09988C6.89999 3.69988 6.7 3.29988 6.3 3.09988C5.9 2.99988 5.4 2.89989 5 2.89989H2.39999ZM2.39999 7.19989V10.1999H5.2C5.6 10.1999 6 10.0999 6.3 9.99988C6.8 9.69988 7.1 9.19988 7 8.59988C7 8.09988 6.8 7.59989 6.3 7.39989C5.9 7.29989 5.6 7.19989 5.2 7.19989H2.39999ZM16.3 3.99988C16.9 4.29988 17.4 4.69989 17.7 5.19989C18.1 5.69989 18.3 6.29988 18.4 6.99988C18.5 7.49988 18.5 8.09989 18.5 8.69989H12.4C12.4 9.39989 12.7 10.0999 13.3 10.3999C13.7 10.5999 14.1 10.6999 14.5 10.6999C15.2 10.7999 15.9 10.3999 16.2 9.69989H18.4C18.3 10.2999 18 10.7999 17.6 11.1999C16.8 11.9999 15.6 12.4999 14.5 12.3999C13.4 12.3999 12.3 12.0999 11.5 11.3999C10.6 10.5999 10.1 9.29988 10.2 8.09988C10.1 6.89988 10.5 5.69988 11.3 4.79988C12.1 3.99988 13.2 3.59988 14.3 3.59988C15 3.69988 15.6 3.79988 16.3 3.99988ZM13 5.89989C12.7 6.29989 12.5 6.69989 12.4 7.19989H16.2C16.2 6.69989 16 6.19989 15.6 5.89989C15.2 5.59989 14.8 5.39989 14.3 5.39989C13.8 5.39989 13.4 5.59989 13 5.89989ZM11.9 2.89989H16.8V1.49988H11.9V2.89989Z" fill="#1B80E4"/>
</svg>
