<svg width="17" height="18" viewBox="0 0 17 18" fill="none" xmlns="http://www.w3.org/2000/svg">
<path d="M4.39999 5.90015H0.799988V17.0001H4.39999V5.90015Z" fill="#1B80E4"/>
<path d="M14.3 6.10014H14.2L14 6.00014C13.8 6.00014 13.6 5.90015 13.4 5.90015C11.8 6.00015 10.4 6.80014 9.5 8.00014V5.90015H5.89999V17.0001H9.5V11.0001C9.5 11.0001 12.2 7.20015 13.4 10.0001V17.1001H17V9.60014C17 7.90014 15.9 6.50014 14.3 6.10014Z" fill="#1B80E4"/>
<path d="M4.39999 2.60004C4.39999 3.60004 3.60001 4.40005 2.60001 4.40005C1.60001 4.40005 0.799988 3.60004 0.799988 2.60004C0.799988 1.60004 1.60001 0.800049 2.60001 0.800049C3.60001 0.900049 4.39999 1.70004 4.39999 2.60004Z" fill="#1B80E4"/>
</svg>
