<svg width="20" height="17" viewBox="0 0 20 17" fill="none" xmlns="http://www.w3.org/2000/svg">
<path d="M19.1 7.70001C19.1 6.40001 18.1 5.40001 16.8 5.40001C16.3 5.40001 15.8 5.60001 15.4 5.90001C14 4.90001 12.3 4.40001 10.5 4.30001L11.5 2.00001L14.4 2.70001C14.5 3.70001 15.4 4.40001 16.3 4.20001C17.3 4.10001 18 3.20001 17.8 2.30001C17.6 1.40001 16.8 0.60001 15.9 0.80001C15.4 0.90001 14.9 1.10001 14.6 1.60001L11.2 0.80001C10.9 0.70001 10.6 0.900011 10.5 1.20001L9.10001 4.40001C7.20001 4.40001 5.4 5.00001 3.8 6.00001C3.4 5.70001 2.89999 5.50001 2.39999 5.50001C1.09999 5.50001 0.100006 6.60001 0.100006 7.90001C0.100006 8.70001 0.600003 9.50001 1.3 9.90001C1.3 10 1.3 10.1 1.3 10.2C1.3 13.4 5 16.1 9.5 16.1C14 16.1 17.7 13.5 17.7 10.2C17.7 10.1 17.7 10 17.7 9.90001C18.7 9.30001 19.2 8.50001 19.1 7.70001Z" fill="#FF9800"/>
<path d="M16.7 2.40005C16.7 2.70005 16.4 3.00005 16.1 3.00005C15.8 3.00005 15.5 2.70005 15.5 2.40005C15.5 2.10005 15.8 1.80005 16.1 1.80005C16.4 1.80005 16.7 2.00005 16.7 2.40005Z" fill="#FCFCFC"/>
<path d="M7.89999 9.39995C7.89999 9.99995 7.4 10.5999 6.7 10.5999C6 10.5999 5.5 10.1 5.5 9.39995C5.5 8.79995 6 8.19995 6.7 8.19995C7.4 8.19995 7.89999 8.79995 7.89999 9.39995Z" fill="#FCFCFC"/>
<path d="M12.4 13.3001C10.8 14.5001 8.6 14.5001 7 13.3001C6.7 13.1001 6.69999 12.7001 6.89999 12.5001C7.09999 12.2001 7.39999 12.2001 7.69999 12.4001C8.89999 13.3001 10.5 13.3001 11.7 12.4001C12 12.2001 12.3 12.3001 12.5 12.5001C12.7 12.8001 12.6 13.1001 12.4 13.3001Z" fill="#FCFCFC"/>
<path d="M13.8 9.39995C13.8 9.99995 13.3 10.5999 12.6 10.5999C11.9 10.5999 11.4 10.1 11.4 9.39995C11.4 8.79995 11.9 8.19995 12.6 8.19995C13.2 8.19995 13.8 8.79995 13.8 9.39995Z" fill="#FCFCFC"/>
</svg>
