<svg width="16" height="18" viewBox="0 0 16 18" fill="none" xmlns="http://www.w3.org/2000/svg">
<path fill-rule="evenodd" clip-rule="evenodd" d="M11.2 6.30005C12.4 7.20005 13.8 7.60004 15.3 7.60004V5.30005C13.4 4.70005 11.9 3.20005 11.3 1.30005H9.19999V13C8.99999 14.6 7.59999 15.8 5.99999 15.6C4.39999 15.4 3.19999 14 3.39999 12.4C3.49999 11.1 4.59999 10 5.89999 9.80005C6.19999 9.80005 6.39999 9.80005 6.69999 9.90005V7.60004C3.69999 7.70004 1.29999 10.1 1.39999 13.1C1.39999 14.5 1.99999 15.8 2.89999 16.8C5.39999 18.5 8.79999 17.8 10.4 15.3C11 14.4 11.3 13.4 11.3 12.3L11.2 6.30005Z" fill="#69C9D0"/>
<path fill-rule="evenodd" clip-rule="evenodd" d="M15.3 5.29986V4.69985C14.5 4.69985 13.8 4.49985 13.1 4.09985C13.7 4.69985 14.5 5.19986 15.3 5.29986ZM11.3 1.29986C11.3 1.19986 11.3 1.09986 11.3 0.999855V0.599854H8.3V12.2999C8.3 13.6999 7.2 14.7999 5.8 14.7999C5.4 14.7999 5 14.6999 4.7 14.4999C5.5 15.5999 7.1 15.7999 8.2 14.9999C8.8 14.4999 9.2 13.7999 9.2 12.9999V1.29986H11.3ZM6.60001 7.59985V6.99986C6.40001 6.99986 6.1 6.99986 5.8 6.99986C2.8 6.99986 0.399994 9.39986 0.399994 12.3999C0.399994 14.1999 1.3 15.8999 2.8 16.8999C0.700003 14.7999 0.699994 11.2999 2.89999 9.19985C3.89999 8.29985 5.20001 7.69985 6.60001 7.59985Z" fill="#69C9D0"/>
</svg>
