<svg width="19" height="16" viewBox="0 0 19 16" fill="none" xmlns="http://www.w3.org/2000/svg">
<path d="M18.2 2.40003C17.5 2.70003 16.8 2.90003 16.1 3.00003C16.9 2.50003 17.4 1.80003 17.7 1.00003C17 1.40003 16.2 1.70003 15.4 1.90003C14 0.40003 11.7 0.400031 10.2 1.80003C9.3 2.70003 8.9 4.00003 9.2 5.20003C6.3 5.10003 3.5 3.70003 1.7 1.40003C0.699997 3.10003 1.2 5.20003 2.8 6.30003C2.2 6.30003 1.7 6.10003 1.2 5.90003C1.2 7.60003 2.40001 9.20003 4.10001 9.50003C3.80001 9.60003 3.40001 9.60003 3.10001 9.60003C2.90001 9.60003 2.59999 9.60003 2.39999 9.50003C2.89999 11 4.3 12 5.8 12C4.5 13 2.9 13.6 1.3 13.6C1 13.6 0.699994 13.6 0.399994 13.6C2.09999 14.7 4 15.3 6 15.3C11.7 15.3 16.4 10.7 16.4 5.00003V4.90003C16.4 4.70003 16.4 4.60003 16.4 4.40003C17.1 3.80003 17.7 3.10003 18.2 2.40003Z" fill="#03ACF8"/>
</svg>
