<svg width="20" height="12" viewBox="0 0 20 12" fill="none" xmlns="http://www.w3.org/2000/svg">
<path d="M10.2 11.5999H11.3C11.5 11.5999 11.7 11.4999 11.8 11.3999C11.9 11.2999 12 11.0999 12 10.8999C12 10.8999 12 9.39992 12.7 9.09992C13.4 8.79992 14.3 10.5999 15.2 11.2999C15.6 11.5999 16 11.6999 16.5 11.6999H19.1C19.1 11.6999 20.4 11.5999 19.8 10.5999C19.3 9.79992 18.7 8.99992 17.9 8.39992C16.3 6.89992 16.5 7.19992 18.4 4.59992C19.6 2.99992 20 2.09992 19.9 1.69992C19.8 1.29992 18.9 1.39992 18.9 1.39992H16C15.9 1.39992 15.7 1.39992 15.6 1.49992C15.5 1.59992 15.4 1.69992 15.4 1.79992C15.1 2.59992 14.7 3.29992 14.3 3.99992C13 6.19992 12.5 6.29992 12.3 6.19992C11.8 5.89992 11.9 4.89992 11.9 4.29992C11.9 2.19992 12.2 1.29992 11.3 1.09992C10.9 0.999916 10.4 0.899918 9.99999 0.999918C9.19999 0.899918 8.4 0.999919 7.6 1.19992C7.3 1.39992 7 1.69992 7.2 1.69992C7.5 1.69992 7.79999 1.89992 7.99999 2.09992C8.19999 2.49992 8.29998 2.99992 8.29998 3.39992C8.29998 3.39992 8.49999 5.89992 7.89999 6.19992C7.49999 6.39992 6.99998 5.99992 5.79998 3.99992C5.39998 3.29992 5.09998 2.59992 4.79998 1.89992C4.69998 1.79992 4.7 1.69992 4.6 1.59992C4.5 1.49992 4.3 1.49992 4.2 1.39992H1.49999C1.49999 1.39992 1.09999 1.39992 0.899985 1.59992C0.699985 1.79992 0.899985 2.09992 0.899985 2.09992C0.899985 2.09992 2.99999 7.09992 5.49999 9.59992C6.79999 10.7999 8.5 11.5999 10.2 11.5999Z" fill="#1F8EEF"/>
</svg>
