<svg width="369" height="316" viewBox="0 0 369 316" fill="none" xmlns="http://www.w3.org/2000/svg">
<path fill-rule="evenodd" clip-rule="evenodd" d="M107.21 49.39C83.8 44.15 56.72 39.39 33.42 47.65C13.39 54.73 -4.17 74.31 0.880004 96.75C6.6 122.14 35.77 131.75 43.32 155.32C51 179.32 36.85 205.59 28.32 227.05C22.52 241.58 18.93 256.8 21.83 272.58C29.28 313.23 84.28 326.78 115.99 304.14C137.56 288.74 160.76 277.97 184.86 274.52C229.55 268.12 241.02 286.25 290.64 278.72C307.94 276.09 328.36 269.66 338.01 253.72C344.73 242.65 347.01 229.41 345.49 216.63C344.2 205.51 336.71 193.55 338.61 182.47C339.61 176.47 342.48 171.05 345.43 165.77C349.317 158.777 353.437 151.927 357.79 145.22C360.585 141.175 363.084 136.934 365.27 132.53C369.27 123.86 370.32 113.65 367.02 104.7C361.33 89.31 345.79 87.21 331.55 83.96C325.67 82.61 320.12 82.1 317.43 75.71C314.96 69.83 318.93 58.9 319.83 52.71C321.31 42.38 322.17 32.71 315.83 23.9C311.101 17.0246 304.796 11.3807 297.44 7.44001C282.63 -0.329993 264 -1.99999 248.19 3.67001C236.614 7.85215 225.928 14.1755 216.69 22.31C202.11 35.08 190.54 47.58 171 52.31C149.93 57.47 128 54.04 107.21 49.39Z" fill="#D6EDFB"/>
</svg>
