<svg width="341" height="288" viewBox="0 0 341 288" fill="none" xmlns="http://www.w3.org/2000/svg">
<path fill-rule="evenodd" clip-rule="evenodd" d="M107.69 33.2C82.32 23.34 59.12 10.47 31.26 23.04C18.33 28.88 7.51 39.81 3.05 53.27C-1.1 65.82 0.369998 79.62 4.13 92.27C6.71 100.98 4.78992 110.13 10.2299 117.42C14.2689 122.836 15.0768 127.114 14.4477 131.42C13.9438 134.869 12.5178 138.336 11.0917 142.42C9.72264 146.341 4.22992 151.92 2.72992 157.42C2.5426 159.317 1.80027 162.19 1.72992 165.42C1.6641 168.443 2.24655 171.778 2.72992 174.92C3.49915 179.92 5.26314 183.52 6.22992 186.42C8.72992 193.92 10.4405 197.359 12.73 202.165C15.8711 208.758 16.8309 215.145 12.73 223C6.57 234.75 4.44 247.07 7.8 260C11.23 273.24 19.97 282.75 33.38 286C59.82 292.36 90.15 278.95 113.9 268.61C135.01 259.43 154.01 259.28 176.34 261.4C199.962 263.641 223.399 267.527 246.48 273.03C257.48 275.65 268.48 278.64 279.76 278.92C306.46 279.59 335.51 258.35 339.5 231.32C342.5 211.16 338.26 191.39 324.58 175.58C320.91 171.34 318 167.91 314.5 163.5C308.5 144.5 308.5 135 308.5 116.5C312.1 102.19 315.48 86.46 318.06 71.93C322.82 44.97 303.7 11.42 277.72 2.03002C261.72 -3.76998 246.65 4.95002 232.96 13.13C224.29 18.3098 218.506 17.5381 210.73 16.92C207.745 16.6828 203.5 16.5 200 16C194.5 15.5 194.454 15.2037 191.73 14.42C188.821 13.5831 186.88 12.5 183.73 11.2527C181 10.1718 179.672 9.10154 176.73 8.42003C172.794 7.50823 167.5 7 161.5 8C158 9 155.58 9.24843 152.23 11.2527C146.804 14.4983 139.707 19.0426 134 24C125 30 125 30 114.5 34C112.54 33.3 109.62 33.95 107.69 33.2Z" fill="#D6EDFB"/>
</svg>
